{"title":"Jackass.Number.Two.2006.720p.HDTV.x264-CtrlHD","uid":6748690,"size":4290292919,"categoryP":"video","categoryS":"hd___movies","magnet":"?xt=urn:btih:5d9f73cfb7e144df4902f6050673eb7797a9f754&amp;dn=Jackass.Number.Two.2006.720p.HDTV.x264-CtrlHD&amp;tr=udp%3A%2F%2Ftracker.openbittorrent.com%3A80&amp;tr=udp%3A%2F%2Fopen.demonii.com%3A1337&amp;tr=udp%3A%2F%2Ftracker.coppersurfer.tk%3A6969&amp;tr=udp%3A%2F%2Fexodus.desync.com%3A6969","seeders":2,"leechers":0,"uploader":"cerealEat","files":2,"time":1318803824,"description":"Jackass.Number.Two.2006.720p.HDTV.x264-CtrlHD\n\nIMDB: http://www.imdb.com/title/tt0493430/\nScreenshots: http://bayimg.com/hAKMkAaDh\n\n-- General --\nFormat                           : Matroska\nFile size                        : 4.00 GiB\nDuration                         : 1h 28mn\nOverall bit rate                 : 6 492 Kbps\nEncoded date                     : UTC 2008-05-12 18:16:36\nWriting application              : mkvmerge v2.1.0 (\\'Another Place To Fall\\') built on Aug 19 2007 13:40:07\nWriting library                  : libebml v0.7.7 + libmatroska v0.8.1\n\n-- Video --\nID                               : 1\nFormat                           : AVC\nFormat/Info                      : Advanced Video Codec\nFormat profile                   : &lt;a class=&quot;__cf_email__&quot; href=&quot;/cdn-cgi/l/email-protection&quot; data-cfemail=&quot;3179585659717d051f00&quot;&gt;[email&amp;#160;protected]&lt;/a&gt;&lt;script cf-hash='f9e31' type=&quot;text/javascript&quot;&gt;\n/* &lt;![CDATA[ */!function(){try{var t=&quot;currentScript&quot;in document?document.currentScript:function(){for(var t=document.getElementsByTagName(&quot;script&quot;),e=t.length;e--;)if(t[e].getAttribute(&quot;cf-hash&quot;))return t[e]}();if(t&amp;&amp;t.previousSibling){var e,r,n,i,c=t.previousSibling,a=c.getAttribute(&quot;data-cfemail&quot;);if(a){for(e=&quot;&quot;,r=parseInt(a.substr(0,2),16),n=2;a.length-n;n+=2)i=parseInt(a.substr(n,2),16)^r,e+=String.fromCharCode(i);e=document.createTextNode(e),c.parentNode.replaceChild(e,c)}}}catch(u){}}();/* ]]&gt; */&lt;/script&gt;\nFormat settings, CABAC           : Yes\nFormat settings, ReFrames        : 6 frames\nCodec ID                         : V_MPEG4/ISO/AVC\nDuration                         : 1h 28mn\nBit rate                         : 6 078 Kbps\nWidth                            : 1 280 pixels\nHeight                           : 720 pixels\nDisplay aspect ratio             : 16:9\nFrame rate                       : 25.000 fps\nColor space                      : YUV\nChroma subsampling               : 4:2:0\nBit depth                        : 8 bits\nScan type                        : Progressive\nBits/(Pixel*Frame)               : 0.264\nStream size                      : 3.68 GiB (92%)\nTitle                            : Jackass Number Two (2006)\nWriting library                  : x264 core 58 svn-736M\nLanguage                         : English\n\n-- Audio --\nID                               : 2\nFormat                           : AC-3\nFormat/Info                      : Audio Coding 3\nMode extension                   : CM (complete main)\nCodec ID                         : A_AC3\nDuration                         : 1h 28mn\nBit rate mode                    : Constant\nBit rate                         : 384 Kbps\nChannel(s)                       : 2 channels\nChannel positions                : Front: L R\nSampling rate                    : 48.0 KHz\nBit depth                        : 16 bits\nCompression mode                 : Lossy\nDelay relative to video          : 9ms\nStream size                      : 242 MiB (6%)\nTitle                            : AC3 5.1 384kbps\nLanguage                         : English","torrent":{"xt":"urn:btih:5d9f73cfb7e144df4902f6050673eb7797a9f754","amp;dn":"Jackass.Number.Two.2006.720p.HDTV.x264-CtrlHD","amp;tr":["udp%3A%2F%2Ftracker.openbittorrent.com%3A80","udp%3A%2F%2Fopen.demonii.com%3A1337","udp%3A%2F%2Ftracker.coppersurfer.tk%3A6969","udp%3A%2F%2Fexodus.desync.com%3A6969"],"infoHash":"5d9f73cfb7e144df4902f6050673eb7797a9f754","infoHashBuffer":{"type":"Buffer","data":[93,159,115,207,183,225,68,223,73,2,246,5,6,115,235,119,151,169,247,84]},"announce":[],"urlList":[]}}